<svg width="59" height="59" viewBox="0 0 59 59" fill="none" xmlns="http://www.w3.org/2000/svg">
<path d="M29.5003 4.91663C15.9524 4.91663 4.91699 15.9521 4.91699 29.5C4.91699 43.0478 15.9524 54.0833 29.5003 54.0833C43.0482 54.0833 54.0837 43.0478 54.0837 29.5C54.0837 15.9521 43.0482 4.91663 29.5003 4.91663ZM29.5003 9.83329C40.391 9.83329 49.167 18.6092 49.167 29.5C49.167 39.3689 41.9526 47.4778 32.4964 48.917V35.3625H38.2197L39.1176 29.548H32.4964V26.3694C32.4964 23.9529 33.2837 21.8081 35.5453 21.8081H39.1752V16.733C38.536 16.6469 37.1872 16.4593 34.6379 16.4593C29.3131 16.4593 26.1921 19.2716 26.1921 25.678V29.548H20.7185V35.3625H26.1921V48.8689C16.8898 47.3004 9.83366 39.2601 9.83366 29.5C9.83366 18.6092 18.6096 9.83329 29.5003 9.83329Z" fill="#16205F"/>
</svg>
