<svg width="30" height="30" viewBox="0 0 30 30" fill="none" xmlns="http://www.w3.org/2000/svg">
<path d="M15 2.50024C8.11125 2.50024 2.5 8.11149 2.5 15.0002C2.5 21.889 8.11125 27.5002 15 27.5002C21.8888 27.5002 27.5 21.889 27.5 15.0002C27.5 8.11149 21.8888 2.50024 15 2.50024ZM15 5.00024C20.5377 5.00024 25 9.46259 25 15.0002C25 20.0183 21.3317 24.1415 16.5234 24.8733V17.9812H19.4336L19.8901 15.0247H16.5234V13.4084C16.5234 12.1797 16.9237 11.0891 18.0737 11.0891H19.9194V8.50854C19.5944 8.4648 18.9086 8.36938 17.6123 8.36938C14.9048 8.36938 13.3179 9.79938 13.3179 13.0569V15.0247H10.5347V17.9812H13.3179V24.8489C8.58786 24.0513 5 19.963 5 15.0002C5 9.46259 9.46235 5.00024 15 5.00024Z" fill="#16205F"/>
</svg>
