<svg width="30" height="31" viewBox="0 0 30 31" fill="none" xmlns="http://www.w3.org/2000/svg">
<path d="M15 2.60645C8.11125 2.60645 2.5 8.30442 2.5 15.2996C2.5 22.2949 8.11125 27.9928 15 27.9928C21.8888 27.9928 27.5 22.2949 27.5 15.2996C27.5 8.30442 21.8888 2.60645 15 2.60645ZM15 5.14509C20.5377 5.14509 25 9.6764 25 15.2996C25 20.3953 21.3317 24.5822 16.5234 25.3253V18.3267H19.4336L19.8901 15.3244H16.5234V13.6832C16.5234 12.4355 16.9237 11.3281 18.0737 11.3281H19.9194V8.70761C19.5944 8.66318 18.9086 8.5663 17.6123 8.5663C14.9048 8.5663 13.3179 10.0184 13.3179 13.3262V15.3244H10.5347V18.3267H13.3179V25.3005C8.58786 24.4906 5 20.3391 5 15.2996C5 9.6764 9.46235 5.14509 15 5.14509Z" fill="#16205F"/>
</svg>
