<svg width="117" height="117" viewBox="0 0 117 117" fill="none" xmlns="http://www.w3.org/2000/svg">
<path d="M22.1605 0.218872C18.6787 0.851921 15.5865 2.48324 12.8839 5.18586C10.717 7.37717 9.42651 9.4224 8.42825 12.3442L7.7952 14.2189L7.72216 53.8331L7.67346 93.4716H9.6213H11.5691V54.9287C11.5691 28.6329 11.6422 15.9233 11.837 14.925C12.2509 12.5389 13.7361 9.81197 15.5865 7.96152C17.437 6.08673 20.2857 4.55281 22.6231 4.13889C24.5709 3.77367 43.3919 3.77367 45.3154 4.13889C50.9398 5.13716 55.6146 10.2259 56.272 16.045L56.4424 17.5059H58.3903H60.3381L60.1433 15.7529C59.7537 11.7111 58.0737 8.2537 55.0302 5.21021C52.8146 2.99454 50.7937 1.7041 47.9693 0.778877L46.0215 0.121483L34.6997 0.0727844C28.4666 0.048439 22.8422 0.121483 22.1605 0.218872Z" fill="white" fill-opacity="0.7"/>
<path d="M106.088 0.292191C105.236 0.779152 97.274 12.8557 97.274 13.6836C97.274 14.0731 97.5175 14.6088 97.8827 14.9497C98.4427 15.534 98.5888 15.5584 101.778 15.5584H105.065L105.017 58.8247L104.944 102.115L104.384 103.625C103.191 106.815 100.658 109.809 98.0288 111.197C94.8636 112.853 95.1557 112.828 82.6652 112.828C72.2686 112.828 71.246 112.78 70.0043 112.366C64.8425 110.613 61.1903 106.401 60.4599 101.288L60.1677 99.3153H58.2442H56.2964L56.4912 101.068C56.8807 105.11 58.5607 108.568 61.6042 111.611C63.8199 113.827 65.8408 115.093 68.6651 116.067L70.613 116.724H82.6652H94.7175L96.6653 116.067C99.4897 115.093 101.511 113.827 103.726 111.611C105.942 109.395 107.208 107.375 108.182 104.55L108.839 102.602L108.912 59.0682L108.961 15.5584H112.272C115.438 15.5584 115.584 15.534 116.144 14.9497C117.239 13.8783 117.045 13.4401 112.613 6.81744C108.742 0.998283 107.914 1.52588e-05 107.013 1.52588e-05C106.818 1.52588e-05 106.404 0.121758 106.088 0.292191ZM109.156 8.61919L111.152 11.6627H107.013H102.874L104.871 8.61919C105.991 6.96353 106.94 5.60004 107.013 5.60004C107.086 5.60004 108.036 6.96353 109.156 8.61919Z" fill="white" fill-opacity="0.7"/>
<path d="M56.3694 23.3498V25.2976H58.3172H60.2651V23.3498V21.4019H58.3172H56.3694V23.3498Z" fill="white" fill-opacity="0.7"/>
<path d="M51.1346 29.8022C50.5503 30.3622 50.5259 30.5326 50.5259 33.4057V36.4248L49.4059 36.8631L48.3103 37.277L46.1677 35.1831C43.0511 32.1396 43.465 31.9935 37.6946 37.7883C31.8997 43.5588 32.0458 43.1449 35.0893 46.2614L37.1833 48.404L36.745 49.4997L36.2824 50.6197H33.2876C30.4389 50.6197 30.2684 50.6441 29.7084 51.2284L29.0997 51.8128V58.4111V65.0093L29.7084 65.5937C30.2684 66.178 30.4389 66.2024 33.2876 66.2024H36.2824L36.745 67.3224L37.1833 68.4181L35.0893 70.5607C32.0458 73.6772 31.8997 73.2633 37.6946 79.0338C43.465 84.8286 43.0511 84.6825 46.1677 81.639L48.3103 79.5451L49.4059 79.959L50.5259 80.3973V83.4164C50.5259 86.2895 50.5503 86.4599 51.1346 87.0199L51.719 87.6286H58.3173H64.9156L65.4999 87.0199C66.0843 86.4599 66.1086 86.2895 66.1086 83.4408V80.446L67.2286 79.9833L68.3243 79.5451L70.4669 81.639C73.5835 84.6825 73.1695 84.8286 78.94 79.0338C84.7348 73.2633 84.5887 73.6772 81.5452 70.5607L79.4513 68.4181L79.8652 67.3224L80.3035 66.2024H83.3226C86.1957 66.2024 86.3661 66.178 86.9261 65.5937L87.5348 65.0093V58.4111V51.8128L86.9261 51.2284C86.3661 50.6441 86.1957 50.6197 83.3226 50.6197H80.3035L79.8652 49.4997L79.4513 48.404L81.5452 46.2614C84.5887 43.1449 84.7348 43.5588 78.94 37.7883C73.1695 31.9935 73.5835 32.1396 70.4669 35.1831L68.3243 37.277L67.2286 36.8388L66.1086 36.3761V33.3813C66.1086 30.5326 66.0843 30.3622 65.4999 29.8022L64.9156 29.1935H58.3173H51.719L51.1346 29.8022ZM62.213 35.7431C62.213 38.8109 62.4808 39.3709 64.2095 39.8823C64.7938 40.0527 65.9625 40.5153 66.8147 40.9049C67.6669 41.2944 68.6408 41.611 68.9817 41.611C69.3956 41.611 70.1504 41.051 71.5626 39.6631L73.5591 37.7396L76.2861 40.4666L78.9887 43.1936L77.0652 45.1658C74.8252 47.4301 74.7765 47.6249 75.8235 49.9136C76.213 50.7658 76.6756 51.9345 76.8461 52.5188C77.3574 54.2476 77.9174 54.5154 80.9852 54.5154H83.6392V58.4111V62.3067H80.9852C77.9174 62.3067 77.3574 62.5746 76.8461 64.3033C76.6756 64.8876 76.213 66.0563 75.8235 66.9085C75.4339 67.7607 75.1174 68.7346 75.1174 69.0755C75.1174 69.4894 75.6774 70.2442 77.0652 71.6563L78.9887 73.6529L76.2617 76.3798L73.5348 79.0825L71.5626 77.159C69.2982 74.919 69.1034 74.8703 66.8147 75.9172C65.9625 76.3068 64.7938 76.7694 64.2095 76.9398C62.4808 77.4512 62.213 78.0112 62.213 81.079V83.7329H58.3173H54.4216V81.079C54.4216 78.0112 54.1538 77.4512 52.4251 76.9398C51.8407 76.7694 50.672 76.3068 49.8198 75.9172C47.5311 74.8703 47.3364 74.919 45.072 77.159L43.0998 79.0825L40.3728 76.3798L37.6459 73.6529L39.5694 71.6563C40.9572 70.2442 41.5172 69.4894 41.5172 69.0755C41.5172 68.7346 41.2007 67.7607 40.8111 66.9085C40.4215 66.0563 39.9589 64.8876 39.7885 64.3033C39.2772 62.5746 38.7172 62.3067 35.6493 62.3067H32.9954V58.4111V54.5154H35.6493C38.7172 54.5154 39.2772 54.2476 39.7885 52.5188C39.9589 51.9345 40.4215 50.7658 40.8111 49.9136C41.8581 47.6249 41.8094 47.4301 39.5694 45.1658L37.6459 43.1936L40.3485 40.4666L43.0755 37.7396L45.072 39.6631C46.4842 41.051 47.239 41.611 47.6529 41.611C47.9937 41.611 48.9677 41.2944 49.8198 40.9049C50.672 40.5153 51.8407 40.0527 52.4251 39.8823C54.1538 39.3709 54.4216 38.8109 54.4216 35.7431V33.0892H58.3173H62.213V35.7431Z" fill="white" fill-opacity="0.7"/>
<path d="M54.9329 43.1932C52.2546 43.7776 49.4302 45.3602 47.3607 47.4541C41.2737 53.5411 41.225 63.2559 47.2389 69.2455C50.2094 72.1916 53.472 73.7012 57.4407 73.9203C64.5503 74.3099 71.0756 69.7812 73.2425 62.9151C73.9973 60.5046 73.9973 56.3168 73.2425 53.9063C70.7834 46.1637 62.8216 41.4888 54.9329 43.1932ZM61.1173 47.0889C65.3051 48.1845 68.5434 51.4472 69.639 55.6594C71.2217 61.722 67.3503 68.1012 61.1173 69.7325C55.0303 71.3151 48.6268 67.4438 46.9954 61.2107C44.8285 52.8837 52.7903 44.9219 61.1173 47.0889Z" fill="white" fill-opacity="0.7"/>
<path d="M56.3694 93.4718V95.4196H58.3172H60.2651V93.4718V91.5239H58.3172H56.3694V93.4718Z" fill="white" fill-opacity="0.7"/>
<path d="M7.33264 97.611C5.79872 98.0005 3.6074 99.3153 2.53609 100.46C2.00044 101.044 1.19696 102.261 0.783041 103.162C0.0769501 104.648 0.00390625 105.013 0.00390625 107.131C0.00390625 109.322 0.0526022 109.541 0.904781 111.295C2.00044 113.51 3.41262 114.874 5.67698 115.945C7.16221 116.651 7.52742 116.724 9.62135 116.724C11.7153 116.724 12.0805 116.651 13.5657 115.945C15.8301 114.874 17.2423 113.51 18.3379 111.295C19.1901 109.541 19.2388 109.322 19.2388 107.107C19.2388 104.891 19.1901 104.672 18.3379 102.919C16.6823 99.6075 13.7605 97.6353 10.157 97.4649C9.13439 97.4162 7.8683 97.4892 7.33264 97.611ZM11.4231 101.555C13.517 102.188 15.4649 104.867 15.4649 107.107C15.4649 110.126 12.6405 112.95 9.62135 112.95C8.08743 112.95 6.84568 112.39 5.60394 111.124C3.12044 108.665 3.12044 105.548 5.60394 103.089C7.30829 101.361 9.13439 100.898 11.4231 101.555Z" fill="white" fill-opacity="0.7"/>
</svg>
