<svg width="138" height="139" viewBox="0 0 138 139" fill="none" xmlns="http://www.w3.org/2000/svg">
<path d="M86.8261 1.22934C79.6805 2.20007 73.6135 4.78867 67.8161 9.31872C54.954 19.3765 49.7498 36.5799 54.8731 52.1655C57.0033 58.7448 61.2098 65.1085 66.333 69.5037C71.4563 73.9259 77.6851 77.0268 83.9679 78.3211C90.0079 79.5884 101.63 79.5884 107.023 78.3211L108.748 77.9166L114.195 83.3365C119.426 88.5137 119.696 88.7294 120.694 88.7294C121.799 88.7294 122.689 88.1632 123.201 87.1924C123.39 86.8149 123.498 83.9837 123.498 78.6177V70.6362L126.14 68.0206C129.969 64.2456 132.855 60.093 134.769 55.6978C141.834 39.3303 137.034 20.2124 123.093 9.31872C117.215 4.70777 111.202 2.20007 103.841 1.20238C100.254 0.74398 90.3585 0.74398 86.8261 1.22934ZM105.324 6.83797C115.813 9.07603 124.388 15.6554 129.188 25.12C130.239 27.2502 131.695 31.6724 132.154 34.261C132.612 36.7417 132.612 43.4559 132.154 45.8557C130.644 53.9721 126.707 60.6054 119.993 66.4028L118.24 67.9128L118.159 73.7641L118.078 79.6424L114.33 75.9213L110.582 72.2271L109.422 72.3619C108.775 72.4159 107.05 72.7664 105.567 73.1169C103.14 73.6832 102.196 73.7371 95.8593 73.7371C86.4217 73.7641 83.0511 73.1169 77.2267 70.2587C67.6543 65.5669 61.1019 57.046 58.8908 46.395C58.2976 43.5637 58.2167 37.2001 58.756 34.261C60.6435 23.7178 67.4655 14.6038 77.0919 9.72319C79.4378 8.56371 83.8061 7.16155 86.2868 6.78405C87.3924 6.62226 88.6058 6.43351 88.9833 6.37958C90.6821 6.08297 103.49 6.46047 105.324 6.83797Z" fill="white" fill-opacity="0.7"/>
<path d="M93.1628 20.1856C90.8438 20.8866 89.8731 21.4529 88.2552 23.0977C86.2599 25.0931 85.1273 27.5469 84.9925 30.1625C84.8847 32.023 84.9116 32.1848 85.6397 32.9398C86.6104 33.9645 88.0665 34.0184 89.199 33.0477C89.8192 32.5084 90.0349 32.05 90.2776 30.5939C90.6281 28.4098 91.5179 26.9806 93.1089 26.0638C95.5626 24.6077 98.4748 24.9583 100.389 26.9267C103.652 30.2973 102.385 35.2318 97.7737 36.9306C94.0796 38.3058 93.5673 39.2765 93.5673 44.993C93.5673 47.4737 93.6751 49.3343 93.8639 49.7387C94.0526 50.1162 94.5919 50.6016 95.1042 50.8443C95.9401 51.2488 96.1828 51.2488 97.0457 50.9252C98.6096 50.332 98.9602 49.3073 98.9602 45.3705C98.9602 42.9167 99.0411 42.0808 99.3107 42.0808C100.201 42.0808 103.005 40.409 104.245 39.1417C109.854 33.4252 108.155 24.2033 100.902 20.8597C98.3939 19.7002 95.6166 19.4575 93.1628 20.1856Z" fill="white" fill-opacity="0.7"/>
<path d="M95.5356 56.5607C94.5918 56.7494 93.5671 58.1516 93.5671 59.2571C93.5671 61.3334 96.3445 62.6008 97.8545 61.1986C99.9308 59.2571 98.3399 56.0484 95.5356 56.5607Z" fill="white" fill-opacity="0.7"/>
<path d="M14.9655 48.1749C13.9408 48.3906 11.9454 49.1456 10.5433 49.7928C8.44004 50.8174 7.60414 51.4107 5.66269 53.3521C3.64034 55.3475 3.12802 56.0755 2.0764 58.2597C-0.0538039 62.6819 0.000125253 62.0077 0.000125253 87.3814C0.000125253 112.755 -0.0538039 112.081 2.0764 116.503C3.12802 118.687 3.64034 119.415 5.66269 121.411C7.60414 123.352 8.44004 123.945 10.5433 124.943C14.4531 126.858 15.7744 127.019 26.0749 127.019H34.9193L40.0425 132.17C46.8107 138.992 47.4039 139.396 49.1566 138.587C50.5048 137.967 50.6936 137.185 50.6936 131.9V127.019H64.7151C80.786 127.019 81.2714 126.965 85.4779 124.943C87.635 123.918 88.417 123.352 90.3585 121.384C92.3269 119.442 92.8931 118.66 93.9178 116.503C95.9132 112.378 96.021 111.353 95.9401 99.0301L95.8592 88.4061L94.9425 87.5971C94.1874 86.923 93.8908 86.8152 93.0549 86.95C92.4347 87.0309 91.8146 87.4084 91.3562 87.9207L90.6012 88.7297V99.1919C90.6012 110.679 90.5472 111.272 88.9563 114.4C87.9317 116.449 85.5318 118.903 83.5904 119.874C80.2467 121.573 81.4332 121.465 63.4478 121.626L46.9185 121.761L46.1905 122.516C45.4624 123.217 45.4355 123.406 45.3006 126.372L45.1658 129.473L41.6604 125.941C39.7459 123.972 37.9123 122.22 37.6157 122.004C37.1843 121.707 35.2159 121.626 27.2344 121.626C19.3607 121.626 17.0687 121.546 15.8283 121.222C10.8399 119.928 7.09181 116.18 5.79751 111.191C5.20429 108.899 5.20429 65.8637 5.79751 63.5717C7.09181 58.5832 10.8399 54.8352 15.8283 53.5409C17.0957 53.2173 19.927 53.1364 32.1419 53.1364H46.9185L47.7814 52.3544C48.5094 51.7073 48.6712 51.3837 48.6712 50.4399C48.6712 49.4962 48.5094 49.1726 47.7814 48.5255L46.9185 47.7435L31.8723 47.7704C19.7382 47.7704 16.5025 47.8513 14.9655 48.1749Z" fill="white" fill-opacity="0.7"/>
<path d="M16.3137 69.558C14.5879 70.286 14.1295 72.5241 15.4508 73.8184L16.1788 74.5734L36.8067 74.6543L57.4077 74.7082L58.2975 73.9262C59.0256 73.2791 59.1874 72.9555 59.1874 72.0118C59.1874 71.068 59.0256 70.7444 58.2975 70.0973L57.4347 69.3153L37.1303 69.3423C25.9939 69.3423 16.6103 69.4501 16.3137 69.558Z" fill="white" fill-opacity="0.7"/>
<path d="M16.3137 84.658C14.5879 85.3861 14.1295 87.6241 15.4508 88.9184L16.1788 89.6734L45.5702 89.7543L74.9347 89.8083L75.8245 89.0263C76.5526 88.3791 76.7143 88.0556 76.7143 87.1118C76.7143 86.168 76.5526 85.8445 75.8245 85.1973L74.9616 84.4153L45.8938 84.4423C29.9308 84.4423 16.6103 84.5502 16.3137 84.658Z" fill="white" fill-opacity="0.7"/>
<path d="M16.3137 99.7584C14.5879 100.486 14.1295 102.725 15.4508 104.019L16.1788 104.774L40.1234 104.828C58.8368 104.882 64.1758 104.828 64.7151 104.558C65.0926 104.369 65.6049 103.776 65.8746 103.21C66.3599 102.239 66.3599 102.185 65.8746 101.215C65.6049 100.648 65.0926 100.055 64.7151 99.8663C64.2028 99.5966 58.729 99.5157 40.447 99.5427C27.477 99.5427 16.6103 99.6506 16.3137 99.7584Z" fill="white" fill-opacity="0.7"/>
<path d="M73.209 99.758C71.4833 100.486 71.0249 102.724 72.3462 104.018C73.9641 105.663 76.7144 104.531 76.7144 102.212C76.7144 100.432 74.773 99.0839 73.209 99.758Z" fill="white" fill-opacity="0.7"/>
</svg>
