<svg width="125" height="124" viewBox="0 0 125 124" fill="none" xmlns="http://www.w3.org/2000/svg">
<path d="M61.3004 0.307909C59.1765 1.47974 60.0798 4.84875 62.4967 4.84875C63.7417 4.84875 64.938 3.65251 64.938 2.43185C64.938 0.600866 62.9117 -0.595378 61.3004 0.307909Z" fill="white" fill-opacity="0.7"/>
<path d="M31.5651 7.16822C30.5642 7.58324 29.8806 8.90155 30.1247 9.87808C30.3201 10.6593 46.9698 27.5532 48.1417 28.1879C49.1182 28.7006 49.9238 28.603 50.7539 27.895C51.7548 27.0649 51.9745 25.8687 51.3154 24.8189C50.5341 23.5739 34.1529 7.33911 33.3717 7.07056C32.5172 6.75319 32.5172 6.75319 31.5651 7.16822Z" fill="white" fill-opacity="0.7"/>
<path d="M91.4262 7.19214C90.5962 7.60717 75.045 22.9874 73.9464 24.4767C72.9943 25.7705 73.0187 26.6494 74.0685 27.6992C74.9718 28.6025 75.7774 28.749 76.8516 28.1874C78.0234 27.5527 94.6732 10.6588 94.8685 9.87759C95.1126 8.87665 94.429 7.58275 93.3793 7.14332C92.3539 6.72829 92.3295 6.72829 91.4262 7.19214Z" fill="white" fill-opacity="0.7"/>
<path d="M61.6177 9.95082C61.3248 10.0729 60.8609 10.4879 60.568 10.8541C60.0797 11.4889 60.0553 11.7086 60.0553 19.0569C60.0553 27.2353 60.1041 27.6504 61.398 28.2363C62.2037 28.6025 62.7896 28.6025 63.5952 28.2363C64.8891 27.6504 64.9379 27.2353 64.9379 19.0325V11.44L64.2788 10.7076C63.5464 9.92641 62.4478 9.60904 61.6177 9.95082Z" fill="white" fill-opacity="0.7"/>
<path d="M24.5098 24.4038C23.6553 24.8432 0.389559 53.8216 0.145428 54.7737C-0.00105123 55.3352 -0.00105123 55.8235 0.194254 56.2141C0.340733 56.5315 3.27031 59.2169 6.71257 62.1709L12.9623 67.5418L18.3332 74.7681C21.2628 78.7474 23.6797 82.0676 23.6797 82.1653C23.6797 82.2385 23.3623 82.8244 22.9473 83.4348C20.799 86.8038 21.1896 91.0761 23.9238 94.0545C25.0468 95.2751 27.5126 96.6423 28.6112 96.6423C29.2947 96.6423 29.2947 96.6423 29.2947 98.2291C29.2947 99.2301 29.49 100.304 29.8074 101.208C30.8328 103.991 34.3483 106.652 36.9605 106.652C37.8637 106.652 38.0835 106.945 38.0835 108.141C38.0835 108.531 38.2788 109.313 38.4985 109.874C39.8412 113.316 42.7708 115.416 46.4816 115.562L47.9708 115.611L48.1417 116.515C48.6544 118.931 50.5342 121.275 52.9267 122.447C54.1473 123.057 54.5868 123.131 56.6375 123.131C58.7126 123.131 59.1032 123.057 60.275 122.447C60.983 122.056 62.106 121.251 62.7407 120.665C63.3755 120.079 63.9614 119.591 64.0346 119.591C64.1323 119.591 64.6938 119.957 65.3041 120.421C68.7708 123.082 73.5314 122.838 76.6318 119.835C77.8525 118.639 78.8046 116.783 79.1464 114.952L79.3905 113.561L80.6356 113.414C84.2243 112.975 87.2515 109.972 87.9351 106.163L88.1793 104.772L89.4243 104.625C93.0375 104.186 96.0403 101.208 96.7239 97.3503C96.9436 96.0075 97.0168 95.9099 97.6271 95.9099C99.7999 95.9099 102.729 94.201 104.072 92.1747C105.806 89.5625 106.099 86.5108 104.853 83.7766L104.268 82.5071L108.222 74.231L112.202 65.9549L118.378 60.6329C121.772 57.7033 124.653 55.0423 124.775 54.7249C124.897 54.4075 124.994 53.8704 124.994 53.5531C124.994 52.8695 103.877 25.2338 102.827 24.5502C102.412 24.2817 101.899 24.1596 101.387 24.2329C100.947 24.2817 97.6516 26.2347 93.6966 28.7493L86.7389 33.1681H77.7793H68.7952L62.0328 35.1211C58.2976 36.1953 55.0262 37.0742 54.7821 37.0742C54.5379 37.0498 51.2422 36.2197 47.4825 35.17L40.6468 33.2901L33.6159 28.8225C26.6093 24.3549 25.5839 23.8667 24.5098 24.4038ZM30.8083 32.8263C33.2741 34.3887 35.4224 35.8047 35.5933 35.9756C35.8619 36.2197 34.0553 38.5634 25.3154 49.1831C19.5051 56.2873 14.598 62.0977 14.4515 62.0977C13.9389 62.0977 5.88252 55.0423 6.05341 54.7493C6.49285 54.0413 26.0234 29.9944 26.1698 29.9944C26.2675 29.9944 28.367 31.2639 30.8083 32.8263ZM110.102 41.615C115.009 48.0113 119.013 53.3089 119.013 53.4066C119.013 53.6019 110.81 60.7305 110.591 60.7549C110.517 60.7549 106.123 55.262 100.85 48.524C92.7933 38.2704 91.3041 36.2441 91.5727 35.9756C91.9877 35.585 100.874 29.9944 101.069 29.9944C101.143 30.0188 105.195 35.2432 110.102 41.615ZM96.8215 51.3803C102.583 58.7042 107.27 64.7587 107.246 64.8564C107.173 65.1493 100.801 78.4545 100.679 78.5521C100.606 78.6254 94.2825 72.4 86.5924 64.7343C72.921 51.0873 72.6037 50.7944 71.5295 50.6479C70.9192 50.5747 67.5746 50.3305 64.0835 50.1108C58.4196 49.7202 57.6628 49.7202 57.0281 50.062C56.5154 50.3305 55.4412 51.9906 52.6825 56.8733C50.6807 60.4132 48.8497 63.5136 48.6299 63.7822C47.0431 65.5399 43.967 65.1981 42.722 63.1474C42.136 62.1709 42.0872 60.5352 42.6243 59.461C42.844 59.0216 44.9924 55.1888 47.4093 50.9164L51.8037 43.1775L53.0731 42.8113C53.7567 42.616 57.6628 41.4686 61.7642 40.2723L69.2102 38.0995L77.7793 38.0751L86.3483 38.0507L96.8215 51.3803ZM43.3323 39.1249C44.553 39.4423 45.9933 39.8329 46.5792 40.0038C47.1407 40.1502 47.6046 40.3456 47.6046 40.4676C47.6046 40.5653 45.6271 44.154 43.1858 48.4507C37.7173 58.0695 37.6684 58.216 37.3999 59.8761C36.814 63.5869 38.645 67.2 42.0384 68.9822C43.2102 69.5925 43.552 69.6657 45.8957 69.6657C48.2393 69.6657 48.5811 69.5925 49.753 68.9822C51.8769 67.8592 52.7069 66.785 56.2468 60.5352L59.6159 54.6272L60.4947 54.7493C61.0074 54.8225 63.4487 55.0179 65.9633 55.1643L70.5041 55.4573L85.3962 70.3737C98.6525 83.6301 100.337 85.4122 100.581 86.3155C101.387 89.416 98.2131 92.0526 95.3811 90.6366C94.9417 90.4169 90.8159 86.4132 86.1774 81.7258L77.7548 73.1812L76.7051 73.2057C75.045 73.2057 73.922 74.6704 74.3126 76.2817C74.4346 76.6967 77.7304 80.1878 82.9792 85.5099C92.2074 94.7869 92.2807 94.8845 91.7924 96.9597C91.2797 99.2301 88.6675 100.451 86.5924 99.4254C86.153 99.2301 83.2234 96.4226 80.0741 93.2L74.337 87.3409L73.214 87.3653C71.6516 87.3653 70.7971 88.1953 70.7971 89.7578V90.8564L76.7539 96.862C81.7098 101.842 82.7595 103.039 82.9792 103.844C83.7116 106.652 81.368 109.044 78.4384 108.483C77.6816 108.336 76.876 107.677 73.8487 104.674C70.4309 101.281 70.1379 101.037 69.2591 101.037C67.4769 101.037 66.3051 102.575 66.891 104.113C67.0375 104.503 68.6731 106.359 70.553 108.239C74.3126 112.047 74.6788 112.682 74.1905 114.635C73.507 117.296 70.26 118.224 68.0384 116.393L67.1351 115.66L67.5746 114.879C67.8919 114.293 67.9896 113.512 67.9896 111.656C67.9896 109.459 67.9163 109.093 67.306 107.872C66.1586 105.626 64.3032 104.064 61.9839 103.38L60.983 103.087L60.9342 101.012C60.8853 98.6197 60.2018 96.862 58.7126 95.2019C57.5896 93.9812 55.2459 92.785 53.5126 92.5653C52.3407 92.4432 52.2431 92.37 52.2431 91.7597C52.2431 90.8075 51.5595 88.6348 50.9248 87.6338C50.1436 86.4132 48.4835 84.9728 47.1407 84.3625C46.2863 83.9719 45.5295 83.8498 43.8694 83.8254H41.7454L41.4769 82.8489C40.8422 80.4319 38.645 78.0395 36.2281 77.1362C35.0318 76.6723 34.4459 76.5991 32.7126 76.6723C30.6863 76.77 29.4412 77.2094 27.7811 78.3812C27.4149 78.6498 27.2929 78.601 26.9999 78.2104C26.8046 77.9418 24.7051 75.1343 22.3614 71.985C19.9933 68.8357 18.0891 66.1014 18.1379 65.9305C18.2356 65.3446 40.5736 38.3193 40.8666 38.4169C41.013 38.4657 42.136 38.7831 43.3323 39.1249ZM35.1783 82.0676C36.6919 83.0686 37.2534 84.9972 36.521 86.7061C35.9839 87.9756 32.2731 91.4179 31.1013 91.7352C29.2215 92.2479 27.4393 91.2958 26.7313 89.4404C26.0234 87.6338 26.3407 86.8526 28.6356 84.4845C29.7342 83.3371 30.9792 82.2141 31.3698 81.97C32.4196 81.3108 34.1285 81.3596 35.1783 82.0676ZM45.3098 88.9766C46.8234 89.7089 47.5802 91.3202 47.2384 93.1512C47.0919 93.908 46.4816 94.6892 43.6253 97.57C41.721 99.4986 39.8656 101.232 39.4994 101.427C38.5473 101.916 36.8872 101.867 35.9351 101.281C34.3483 100.304 33.6891 98.0338 34.5191 96.447C35.0074 95.5193 41.5013 89.1474 42.2337 88.8545C43.1614 88.4883 44.3821 88.5371 45.3098 88.9766ZM53.7811 97.7165C55.5145 98.4244 56.4666 100.451 55.9539 102.208C55.5389 103.527 48.8253 110.167 47.5558 110.509C45.4562 111.07 43.2591 109.63 43.0393 107.555C42.9661 106.945 42.9905 106.139 43.0882 105.748C43.2835 104.918 49.8262 98.2047 50.9004 97.7165C51.8525 97.3014 52.8046 97.3014 53.7811 97.7165ZM61.3736 108.434C63.0581 109.386 63.6929 111.559 62.8384 113.365C62.6187 113.829 61.5445 115.074 60.4215 116.148C58.9323 117.589 58.1511 118.15 57.5163 118.248C56.1492 118.516 54.9285 118.175 54.0497 117.296C53.3173 116.563 52.6581 115.001 52.8534 114.391C52.9022 114.22 52.9999 113.78 53.0976 113.39C53.1952 112.95 54.0008 111.876 55.1238 110.729C57.8581 107.897 59.445 107.311 61.3736 108.434Z" fill="white" fill-opacity="0.7"/>
</svg>
