<svg width="30" height="31" viewBox="0 0 30 31" fill="none" xmlns="http://www.w3.org/2000/svg">
<path d="M10 3.87598C6.55375 3.87598 3.75 6.72306 3.75 10.2226V20.3771C3.75 23.8767 6.55375 26.7237 10 26.7237H20C23.4462 26.7237 26.25 23.8767 26.25 20.3771V10.2226C26.25 6.72306 23.4462 3.87598 20 3.87598H10ZM10 6.41462H20C22.0675 6.41462 23.75 8.12312 23.75 10.2226V20.3771C23.75 22.4766 22.0675 24.1851 20 24.1851H10C7.9325 24.1851 6.25 22.4766 6.25 20.3771V10.2226C6.25 8.12312 7.9325 6.41462 10 6.41462ZM21.25 7.68394C20.9185 7.68394 20.6005 7.81767 20.3661 8.05571C20.1317 8.29376 20 8.61661 20 8.95326C20 9.2899 20.1317 9.61276 20.3661 9.8508C20.6005 10.0888 20.9185 10.2226 21.25 10.2226C21.5815 10.2226 21.8995 10.0888 22.1339 9.8508C22.3683 9.61276 22.5 9.2899 22.5 8.95326C22.5 8.61661 22.3683 8.29376 22.1339 8.05571C21.8995 7.81767 21.5815 7.68394 21.25 7.68394ZM15 8.95326C11.5538 8.95326 8.75 11.8003 8.75 15.2999C8.75 18.7994 11.5538 21.6465 15 21.6465C18.4462 21.6465 21.25 18.7994 21.25 15.2999C21.25 11.8003 18.4462 8.95326 15 8.95326ZM15 11.4919C17.0675 11.4919 18.75 13.2004 18.75 15.2999C18.75 17.3993 17.0675 19.1078 15 19.1078C12.9325 19.1078 11.25 17.3993 11.25 15.2999C11.25 13.2004 12.9325 11.4919 15 11.4919Z" fill="#16205F"/>
</svg>
