<svg width="30" height="30" viewBox="0 0 30 30" fill="none" xmlns="http://www.w3.org/2000/svg">
<path d="M10 3.75024C6.55375 3.75024 3.75 6.55399 3.75 10.0002V20.0002C3.75 23.4465 6.55375 26.2502 10 26.2502H20C23.4463 26.2502 26.25 23.4465 26.25 20.0002V10.0002C26.25 6.55399 23.4463 3.75024 20 3.75024H10ZM10 6.25024H20C22.0675 6.25024 23.75 7.93274 23.75 10.0002V20.0002C23.75 22.0677 22.0675 23.7502 20 23.7502H10C7.9325 23.7502 6.25 22.0677 6.25 20.0002V10.0002C6.25 7.93274 7.9325 6.25024 10 6.25024ZM21.25 7.50024C20.9185 7.50024 20.6005 7.63194 20.3661 7.86636C20.1317 8.10078 20 8.41872 20 8.75024C20 9.08176 20.1317 9.39971 20.3661 9.63413C20.6005 9.86855 20.9185 10.0002 21.25 10.0002C21.5815 10.0002 21.8995 9.86855 22.1339 9.63413C22.3683 9.39971 22.5 9.08176 22.5 8.75024C22.5 8.41872 22.3683 8.10078 22.1339 7.86636C21.8995 7.63194 21.5815 7.50024 21.25 7.50024ZM15 8.75024C11.5538 8.75024 8.75 11.554 8.75 15.0002C8.75 18.4465 11.5538 21.2502 15 21.2502C18.4462 21.2502 21.25 18.4465 21.25 15.0002C21.25 11.554 18.4462 8.75024 15 8.75024ZM15 11.2502C17.0675 11.2502 18.75 12.9327 18.75 15.0002C18.75 17.0677 17.0675 18.7502 15 18.7502C12.9325 18.7502 11.25 17.0677 11.25 15.0002C11.25 12.9327 12.9325 11.2502 15 11.2502Z" fill="#16205F"/>
</svg>
