<svg width="30" height="31" viewBox="0 0 30 31" fill="none" xmlns="http://www.w3.org/2000/svg">
<path d="M6.25 3.87598C4.86875 3.87598 3.75 5.01202 3.75 6.41462V24.1851C3.75 25.5877 4.86875 26.7237 6.25 26.7237H23.75C25.1313 26.7237 26.25 25.5877 26.25 24.1851V6.41462C26.25 5.01202 25.1313 3.87598 23.75 3.87598H6.25ZM6.25 6.41462H23.75V24.1851H6.25V6.41462ZM9.72412 8.08556C8.65287 8.08556 8.01025 8.73948 8.01025 9.61023C8.01025 10.481 8.65295 11.1324 9.6167 11.1324C10.6879 11.1324 11.3306 10.481 11.3306 9.61023C11.3306 8.73948 10.6879 8.08556 9.72412 8.08556ZM8.0957 12.7612V21.6465H11.25V12.7612H8.0957ZM13.8525 12.7612V21.6465H17.0068V16.7898C17.0068 15.3441 18.0226 15.1362 18.3276 15.1362C18.6326 15.1362 19.4482 15.4469 19.4482 16.7898V21.6465H22.5V16.7898C22.5 14.0011 21.2797 12.7612 19.7534 12.7612C18.2272 12.7612 17.4131 13.2773 17.0068 14.0008V12.7612H13.8525Z" fill="#16205F"/>
</svg>
