<svg width="104" height="104" viewBox="0 0 104 104" fill="none" xmlns="http://www.w3.org/2000/svg">
<g clip-path="url(#clip0_21_866)">
<path d="M52.0003 8.66667C35.2303 8.66667 21.667 22.23 21.667 39C21.667 61.75 52.0003 95.3333 52.0003 95.3333C52.0003 95.3333 82.3337 61.75 82.3337 39C82.3337 22.23 68.7703 8.66667 52.0003 8.66667ZM30.3337 39C30.3337 27.04 40.0403 17.3333 52.0003 17.3333C63.9603 17.3333 73.667 27.04 73.667 39C73.667 51.48 61.187 70.1567 52.0003 81.8133C42.987 70.2433 30.3337 51.35 30.3337 39Z" fill="url(#paint0_linear_21_866)"/>
<path d="M52.0003 49.8333C57.9834 49.8333 62.8337 44.9831 62.8337 39C62.8337 33.0169 57.9834 28.1667 52.0003 28.1667C46.0172 28.1667 41.167 33.0169 41.167 39C41.167 44.9831 46.0172 49.8333 52.0003 49.8333Z" fill="url(#paint1_linear_21_866)"/>
</g>
<defs>
<linearGradient id="paint0_linear_21_866" x1="21.667" y1="52" x2="82.3337" y2="52" gradientUnits="userSpaceOnUse">
<stop stop-color="#FF9900"/>
<stop offset="1" stop-color="#F2CB00"/>
</linearGradient>
<linearGradient id="paint1_linear_21_866" x1="41.167" y1="49.8333" x2="52.0003" y2="49.8333" gradientUnits="userSpaceOnUse">
<stop stop-color="#ED7901"/>
<stop offset="1" stop-color="#FCB81F"/>
</linearGradient>
<clipPath id="clip0_21_866">
<rect width="104" height="104" fill="white"/>
</clipPath>
</defs>
</svg>
