<svg width="24" height="25" viewBox="0 0 24 25" fill="none" xmlns="http://www.w3.org/2000/svg">
<g clip-path="url(#clip0_22_451)">
<path d="M12 2.25488C8.13 2.25488 5 5.43326 5 9.36307C5 14.6942 12 22.564 12 22.564C12 22.564 19 14.6942 19 9.36307C19 5.43326 15.87 2.25488 12 2.25488ZM7 9.36307C7 6.56041 9.24 4.28579 12 4.28579C14.76 4.28579 17 6.56041 17 9.36307C17 12.2876 14.12 16.6642 12 19.3958C9.92 16.6845 7 12.2571 7 9.36307Z" fill="#16205F"/>
<path d="M12 11.902C13.3807 11.902 14.5 10.7654 14.5 9.36334C14.5 7.96129 13.3807 6.82471 12 6.82471C10.6193 6.82471 9.5 7.96129 9.5 9.36334C9.5 10.7654 10.6193 11.902 12 11.902Z" fill="#16205F"/>
</g>
<defs>
<clipPath id="clip0_22_451">
<rect width="24" height="24.3709" fill="white" transform="translate(0 0.224121)"/>
</clipPath>
</defs>
</svg>
