<svg width="109" height="131" viewBox="0 0 109 131" fill="none" xmlns="http://www.w3.org/2000/svg">
<path d="M49.0059 0.280792C45.9855 0.613541 41.4293 1.6886 38.3322 2.78923C35.235 3.88988 31.3444 5.73282 30.6533 6.42392C29.9366 7.14062 30.039 8.52282 30.858 9.16273C31.242 9.46989 31.6771 9.70026 31.8563 9.70026C32.0355 9.70026 33.4689 9.08595 35.0814 8.31805C52.0774 0.280792 71.6074 3.30116 85.0199 16.0737C99.9426 30.2541 103.321 52.5998 93.262 70.4148C84.3288 86.2334 66.6673 95.1153 48.8011 92.7604C39.2024 91.5062 30.9092 87.4876 23.7167 80.6278C16.78 73.9727 12.3519 65.6539 10.5857 55.9017C9.94582 52.3438 9.94582 44.6137 10.5857 41.0558C12.3263 31.4572 16.6521 23.2407 23.5375 16.4833C24.9709 15.0755 26.2507 13.7189 26.3787 13.4629C26.9418 12.4391 25.9179 10.9801 24.6637 10.9801C24.0238 10.9801 23.4607 11.3128 22.0785 12.4903C18.0599 15.997 14.1436 21.2186 11.3792 26.7218C6.31114 36.8836 4.92893 47.2501 7.18141 58.3845C8.71719 66.0634 12.9406 74.5614 18.0343 80.2694L19.4421 81.8564L16.6265 86.7709C15.0907 89.4841 13.8109 91.8902 13.8109 92.1717C13.8109 92.914 14.9627 93.9123 15.8074 93.9123C16.8056 93.9123 17.164 93.5539 18.4182 91.3526C19.0325 90.3032 20.1332 88.3579 20.9011 87.0525L22.2833 84.6976L24.1262 86.1822C28.5032 89.7657 33.8016 92.6581 39.2024 94.4498C41.071 95.0641 42.658 95.6016 42.7092 95.6272C42.8371 95.704 26.5067 124.09 26.3275 124.116C26.2507 124.116 25.2268 121.096 24.075 117.384C22.8976 113.698 21.7713 110.473 21.5666 110.217C20.9523 109.552 20.0052 109.654 12.9918 111.19C9.45949 111.958 6.51591 112.546 6.43912 112.495C6.38793 112.418 7.89811 109.628 9.81784 106.275C13.5293 99.7994 13.6573 99.4411 12.4799 98.4428C11.8655 97.9309 10.7649 97.8797 10.1762 98.3405C9.74105 98.6732 1.16627 113.417 0.628747 114.773C0.449572 115.183 0.372783 115.72 0.449572 115.925C0.654343 116.565 1.57581 117.461 2.03655 117.461C2.26691 117.461 6.13196 116.642 10.6113 115.669C15.0907 114.671 18.8022 113.929 18.8789 113.98C18.9301 114.057 20.1332 117.717 21.5154 122.119C23.3071 127.776 24.2286 130.259 24.5869 130.566C25.3804 131.232 26.3019 131.129 27.0698 130.31C27.4537 129.926 32.0355 122.145 37.2315 113.033L46.7022 96.4719L48.4939 96.6767C50.8488 96.9071 58.2461 96.9071 60.5242 96.6511L62.316 96.4463L68.0751 106.506C71.2491 112.035 74.0391 116.744 74.2951 117C74.9862 117.717 76.3684 117.615 77.0083 116.795C77.3154 116.411 77.5458 115.925 77.5458 115.695C77.5458 115.464 75.0118 110.857 71.9146 105.456C68.8174 100.055 66.309 95.6016 66.3346 95.576C66.3858 95.5505 67.1537 95.3201 68.0751 95.0641C73.9111 93.3748 80.515 89.8681 85.2503 85.9518C86.1206 85.2095 86.8885 84.6976 86.9397 84.8512C86.9908 84.9792 90.5743 91.2503 94.9257 98.7756C99.2771 106.301 102.809 112.495 102.784 112.521C102.784 112.521 99.661 111.881 95.8728 111.036C92.0845 110.217 88.7826 109.526 88.5522 109.526C87.426 109.526 87.2724 109.91 83.8937 120.584L82.793 124.116L81.8972 122.887C80.8989 121.556 79.9774 121.249 78.9792 121.915C77.8018 122.683 77.9041 123.425 79.6191 126.522C81.9228 130.643 82.0252 130.771 83.1002 130.771C84.7896 130.771 84.508 131.411 88.9106 117.435L90.088 113.724L97.9717 115.464C102.297 116.411 106.214 117.231 106.7 117.256C107.749 117.307 108.517 116.514 108.517 115.388C108.517 114.901 105.523 109.475 99.2515 98.5964C94.1834 89.7657 89.96 82.3171 89.8832 82.0612C89.8064 81.8052 90.1392 81.2165 90.7535 80.5254C93.4411 77.6074 95.9752 73.7935 98.0485 69.4678C106.239 52.5486 103.833 32.3786 91.8798 17.7631C89.7297 15.1267 85.1479 10.8521 82.3835 8.88117C79.5423 6.83347 74.5766 4.24823 71.0955 2.94281C64.4149 0.459976 56.1472 -0.538284 49.0059 0.280792Z" fill="white" fill-opacity="0.7"/>
<path d="M48.8778 13.6679C34.0575 16.1763 22.3344 27.7971 19.8515 42.515C19.2884 45.7401 19.2884 51.2178 19.8515 54.4429C22.0272 67.2923 31.1139 77.838 43.5794 82.0102C47.0861 83.1876 50.3368 83.674 54.637 83.674C63.1862 83.674 70.6603 80.9607 77.213 75.4319C81.206 72.0788 85.9925 65.6541 85.9925 63.632C85.9925 62.7873 84.9687 61.917 83.996 61.917C83.1001 61.917 83.2793 61.7123 80.3357 66.2172C76.7266 71.746 70.7115 76.251 64.082 78.4267C58.2717 80.3208 50.7719 80.3208 44.936 78.4267C40.303 76.9165 36.1052 74.3313 32.5473 70.8246C25.8411 64.1951 22.6927 55.7227 23.307 45.9961C24.0237 35.2712 30.7556 25.2886 40.6358 20.3485C47.8795 16.7138 56.6591 16.0995 64.338 18.6848C75.2164 22.3195 83.2281 31.5853 85.3526 42.9757C85.8133 45.4586 85.8901 50.9874 85.4806 53.3423C85.1222 55.4923 85.1478 55.8507 85.7365 56.4906C86.4788 57.2841 87.8354 57.2585 88.501 56.4138C89.1921 55.5435 89.6016 52.5232 89.6016 48.4021C89.6016 44.6907 89.3456 42.6686 88.4242 39.2642C84.9175 26.0053 73.6807 15.8692 60.0122 13.6679C57.2478 13.2071 51.5398 13.2071 48.8778 13.6679Z" fill="white" fill-opacity="0.7"/>
<path d="M53.5364 26.0051C53.3572 26.0819 51.847 28.8463 50.1832 32.1995L47.1373 38.2402L40.7894 39.1361C34.8254 39.9807 34.3647 40.0831 33.7248 40.723C32.445 41.9517 32.5985 42.182 37.8458 47.4037L42.7091 52.2158L41.5573 58.7941C40.4054 65.2955 40.4054 65.3467 40.8918 65.9866C41.8388 67.2665 42.5043 67.0873 48.6219 63.8621C51.719 62.224 54.3555 60.893 54.5346 60.893C54.6882 60.893 57.3246 62.224 60.3962 63.8621C66.4881 67.0873 67.1792 67.2665 68.1263 65.9866C68.6126 65.3467 68.6126 65.2955 67.4608 58.7941L66.309 52.2414L71.1723 47.4037C74.4998 44.0762 76.01 42.4124 76.01 42.0285C76.01 41.7213 75.754 41.1582 75.4213 40.7742C74.8581 40.1343 74.5254 40.0575 68.3567 39.1617L61.8552 38.2402L58.9372 32.353C57.3246 29.1023 55.8144 26.3123 55.5841 26.1331C55.1745 25.826 54.1507 25.7492 53.5364 26.0051ZM56.8127 36.7556C58.0157 39.2385 59.2188 41.3885 59.5003 41.5677C59.9099 41.8237 68.587 43.2315 69.7389 43.2315C69.8924 43.2315 68.3055 44.8697 66.2066 46.8918C62.7511 50.2449 62.4439 50.6032 62.4439 51.4223C62.4439 51.9342 62.8023 54.3403 63.2118 56.772C63.6469 59.2036 63.9541 61.2513 63.9285 61.2769C63.8773 61.3281 61.9064 60.3043 59.5003 59.0244C57.1199 57.7446 54.8674 56.7208 54.509 56.7208C54.1507 56.7208 51.9238 57.7702 49.5177 59.05C47.1373 60.3298 45.1408 61.3281 45.0896 61.2769C45.064 61.2513 45.3711 59.2036 45.8063 56.772C46.2158 54.3403 46.5742 51.9342 46.5742 51.4223C46.5742 50.6032 46.2926 50.2449 42.8115 46.8918C40.7126 44.8697 39.1512 43.2315 39.2792 43.2315C40.4566 43.2315 49.1082 41.8237 49.5177 41.5677C49.7993 41.3885 51.0279 39.2129 52.2054 36.7556C53.4084 34.2728 54.4322 32.2506 54.509 32.2506C54.5858 32.2506 55.6097 34.2728 56.8127 36.7556Z" fill="white" fill-opacity="0.7"/>
</svg>
