<svg width="24" height="25" viewBox="0 0 24 25" fill="none" xmlns="http://www.w3.org/2000/svg">
<g clip-path="url(#clip0_22_445)">
<path d="M17.38 11.512L15.18 9.27796C14.9 8.99363 14.82 8.5976 14.93 8.24219C15.3 7.10488 15.5 5.88634 15.5 4.61702C15.5 4.05852 15.95 3.60156 16.5 3.60156H20C20.55 3.60156 21 4.05852 21 4.61702C21 14.1521 13.39 21.8798 4 21.8798C3.45 21.8798 3 21.4228 3 20.8643V17.3204C3 16.7619 3.45 16.3049 4 16.3049C5.24 16.3049 6.45 16.1018 7.57 15.7261C7.92 15.6042 8.32 15.6956 8.59 15.9698L10.79 18.2038C13.62 16.7314 15.94 14.3857 17.38 11.512Z" fill="#16205F"/>
</g>
<defs>
<clipPath id="clip0_22_445">
<rect width="24" height="24.3709" fill="white" transform="translate(0 0.555176)"/>
</clipPath>
</defs>
</svg>
