<svg width="24" height="24" viewBox="0 0 24 24" fill="none" xmlns="http://www.w3.org/2000/svg">
<g clip-path="url(#clip0_22_224)">
<path d="M17.38 10.7902L15.18 8.59024C14.9 8.31024 14.82 7.92024 14.93 7.57024C15.3 6.45024 15.5 5.25024 15.5 4.00024C15.5 3.45024 15.95 3.00024 16.5 3.00024H20C20.55 3.00024 21 3.45024 21 4.00024C21 13.3902 13.39 21.0002 4 21.0002C3.45 21.0002 3 20.5502 3 20.0002V16.5102C3 15.9602 3.45 15.5102 4 15.5102C5.24 15.5102 6.45 15.3102 7.57 14.9402C7.92 14.8202 8.32 14.9102 8.59 15.1802L10.79 17.3802C13.62 15.9302 15.94 13.6202 17.38 10.7902Z" fill="#16205F"/>
</g>
<defs>
<clipPath id="clip0_22_224">
<rect width="24" height="24" fill="white" transform="translate(0 0.000244141)"/>
</clipPath>
</defs>
</svg>
