<svg width="30" height="30" viewBox="0 0 30 30" fill="none" xmlns="http://www.w3.org/2000/svg">
<path d="M6.25 3.75024C4.87125 3.75024 3.75 4.87149 3.75 6.25024V23.7502C3.75 25.129 4.87125 26.2502 6.25 26.2502H23.75C25.1287 26.2502 26.25 25.129 26.25 23.7502V6.25024C26.25 4.87149 25.1287 3.75024 23.75 3.75024H6.25ZM6.25 6.25024H23.75L23.7524 23.7502H6.25V6.25024ZM18.208 8.89185C16.493 8.89185 15.1001 10.286 15.1001 11.9998C15.1001 12.321 15.2075 12.5355 15.2075 12.7493C12.6363 12.643 10.3867 11.3576 8.88672 9.53638C8.56547 9.96513 8.45703 10.4992 8.45703 11.0354C8.45703 12.1067 8.99357 12.9661 9.85107 13.7161C9.31607 13.6086 8.88578 13.5001 8.45703 13.2864C8.45703 14.7864 9.52791 15.9656 10.9204 16.2869C10.5992 16.3944 10.3847 16.3943 10.0635 16.3943C9.95598 16.3943 9.74012 16.2869 9.52637 16.2869C9.95512 17.4656 11.0269 18.428 12.4194 18.428C11.3482 19.178 9.95451 19.7146 8.56201 19.7146H7.8125C9.205 20.5709 10.8131 21.1086 12.5269 21.1086C18.2056 21.1086 21.3135 16.3933 21.3135 12.322V11.8923C21.8497 11.4636 22.3837 10.9284 22.8149 10.2834C22.1724 10.6059 21.6362 10.7131 20.9937 10.8206C21.6362 10.3931 22.1715 9.85669 22.3853 9.10669C21.849 9.42794 21.2065 9.7487 20.4565 9.8562C19.9203 9.2137 19.0655 8.89185 18.208 8.89185Z" fill="#16205F"/>
</svg>
