<svg width="30" height="31" viewBox="0 0 30 31" fill="none" xmlns="http://www.w3.org/2000/svg">
<path d="M6.25 3.87598C4.87125 3.87598 3.75 5.01456 3.75 6.41462V24.1851C3.75 25.5852 4.87125 26.7237 6.25 26.7237H23.75C25.1288 26.7237 26.25 25.5852 26.25 24.1851V6.41462C26.25 5.01456 25.1288 3.87598 23.75 3.87598H6.25ZM6.25 6.41462H23.75L23.7524 24.1851H6.25V6.41462ZM18.208 9.09705C16.493 9.09705 15.1001 10.5128 15.1001 12.253C15.1001 12.5792 15.2075 12.797 15.2075 13.0141C12.6363 12.9062 10.3867 11.6009 8.88672 9.75154C8.56547 10.1869 8.45703 10.7292 8.45703 11.2737C8.45703 12.3615 8.99357 13.2342 9.85107 13.9958C9.31607 13.8867 8.88578 13.7766 8.45703 13.5595C8.45703 15.0827 9.52791 16.2801 10.9204 16.6064C10.5992 16.7155 10.3847 16.7154 10.0635 16.7154C9.95598 16.7154 9.74012 16.6064 9.52637 16.6064C9.95512 17.8033 11.0269 18.7806 12.4194 18.7806C11.3482 19.5422 9.95451 20.0871 8.56201 20.0871H7.8125C9.205 20.9566 10.8131 21.5027 12.5269 21.5027C18.2056 21.5027 21.3135 16.7144 21.3135 12.5802V12.1439C21.8497 11.7085 22.3837 11.1651 22.8149 10.5102C22.1724 10.8376 21.6362 10.9464 20.9937 11.0556C21.6362 10.6215 22.1715 10.0768 22.3853 9.31521C21.849 9.64143 21.2065 9.96715 20.4565 10.0763C19.9203 9.42388 19.0655 9.09705 18.208 9.09705Z" fill="#16205F"/>
</svg>
