<svg width="30" height="30" viewBox="0 0 30 30" fill="none" xmlns="http://www.w3.org/2000/svg">
<path d="M15 5.00024C15 5.00024 7.18193 5.0002 5.23193 5.52271C4.15568 5.81021 3.30996 6.65718 3.02246 7.73218C2.49996 9.68218 2.5 15.0002 2.5 15.0002C2.5 15.0002 2.49996 20.3183 3.02246 22.2683C3.30996 23.3446 4.15693 24.1903 5.23193 24.4778C7.18193 25.0003 15 25.0002 15 25.0002C15 25.0002 22.8181 25.0003 24.7681 24.4778C25.8431 24.1903 26.69 23.3433 26.9775 22.2683C27.5 20.3183 27.5 15.0002 27.5 15.0002C27.5 15.0002 27.5 9.68218 26.9775 7.73218C26.69 6.65718 25.8431 5.81021 24.7681 5.52271C22.8181 5.0002 15 5.00024 15 5.00024ZM15 7.50024C18.6025 7.50024 23.1136 7.66726 24.1211 7.93726C24.3323 7.99351 24.5055 8.16665 24.563 8.37915C24.8642 9.50165 25 12.9277 25 15.0002C25 17.0727 24.8642 20.4976 24.563 21.6213C24.5067 21.8326 24.3336 22.0057 24.1211 22.0632C23.1148 22.3332 18.6025 22.5002 15 22.5002C11.3988 22.5002 6.88766 22.3332 5.87891 22.0632C5.66766 22.007 5.49451 21.8338 5.43701 21.6213C5.13576 20.4988 5 17.0727 5 15.0002C5 12.9277 5.13576 9.50171 5.43701 8.37671C5.49326 8.16671 5.66641 7.99351 5.87891 7.93726C6.88516 7.66726 11.3975 7.50024 15 7.50024ZM12.5 10.6692V19.3313L20 15.0002L12.5 10.6692Z" fill="#16205F"/>
</svg>
