<svg width="30" height="31" viewBox="0 0 30 31" fill="none" xmlns="http://www.w3.org/2000/svg">
<path d="M15 5.14502C15 5.14502 7.18193 5.14498 5.23193 5.67556C4.15568 5.9675 3.30996 6.82756 3.02246 7.91918C2.49996 9.89932 2.5 15.2996 2.5 15.2996C2.5 15.2996 2.49996 20.6998 3.02246 22.68C3.30996 23.7729 4.15693 24.6317 5.23193 24.9236C7.18193 25.4542 15 25.4541 15 25.4541C15 25.4541 22.8181 25.4542 24.7681 24.9236C25.8431 24.6317 26.69 23.7716 26.9775 22.68C27.5 20.6998 27.5 15.2996 27.5 15.2996C27.5 15.2996 27.5 9.89932 26.9775 7.91918C26.69 6.82756 25.8431 5.9675 24.7681 5.67556C22.8181 5.14498 15 5.14502 15 5.14502ZM15 7.68366C18.6025 7.68366 23.1136 7.85325 24.1211 8.12743C24.3323 8.18455 24.5055 8.36037 24.563 8.57615C24.8642 9.716 25 13.195 25 15.2996C25 17.4041 24.8642 20.8819 24.563 22.023C24.5067 22.2375 24.3336 22.4133 24.1211 22.4717C23.1148 22.7459 18.6025 22.9155 15 22.9155C11.3987 22.9155 6.88766 22.7459 5.87891 22.4717C5.66766 22.4146 5.49451 22.2388 5.43701 22.023C5.13576 20.8832 5 17.4041 5 15.2996C5 13.195 5.13576 9.71606 5.43701 8.57367C5.49326 8.36043 5.66641 8.18455 5.87891 8.12743C6.88516 7.85325 11.3975 7.68366 15 7.68366ZM12.5 10.9016V19.6976L20 15.2996L12.5 10.9016Z" fill="#16205F"/>
</svg>
