<svg width="59" height="59" viewBox="0 0 59 59" fill="none" xmlns="http://www.w3.org/2000/svg">
<path d="M29.5003 9.83337C29.5003 9.83337 14.1248 9.8333 10.2898 10.8609C8.17317 11.4263 6.50992 13.092 5.9445 15.2062C4.91692 19.0412 4.91699 29.5 4.91699 29.5C4.91699 29.5 4.91692 39.9589 5.9445 43.7939C6.50992 45.9105 8.17563 47.5738 10.2898 48.1392C14.1248 49.1668 29.5003 49.1667 29.5003 49.1667C29.5003 49.1667 44.8759 49.1668 48.7109 48.1392C50.825 47.5738 52.4907 45.9081 53.0562 43.7939C54.0837 39.9589 54.0837 29.5 54.0837 29.5C54.0837 29.5 54.0837 19.0412 53.0562 15.2062C52.4907 13.092 50.825 11.4263 48.7109 10.8609C44.8759 9.8333 29.5003 9.83337 29.5003 9.83337ZM29.5003 14.75C36.5852 14.75 45.4571 15.0785 47.4385 15.6095C47.8539 15.7201 48.1945 16.0606 48.3075 16.4786C48.9 18.6861 49.167 25.4241 49.167 29.5C49.167 33.576 48.9 40.3115 48.3075 42.5215C48.1969 42.937 47.8564 43.2775 47.4385 43.3906C45.4595 43.9216 36.5852 44.25 29.5003 44.25C22.4179 44.25 13.5461 43.9216 11.5622 43.3906C11.1467 43.28 10.8062 42.9394 10.6931 42.5215C10.1007 40.3139 9.83366 33.576 9.83366 29.5C9.83366 25.4241 10.1007 18.6863 10.6931 16.4738C10.8037 16.0608 11.1443 15.7201 11.5622 15.6095C13.5411 15.0785 22.4154 14.75 29.5003 14.75ZM24.5837 20.9823V38.0178L39.3337 29.5L24.5837 20.9823Z" fill="#16205F"/>
</svg>
